<?xml version="1.0" encoding="utf-8"?>
<!-- Generator: Adobe Illustrator 25.4.1, SVG Export Plug-In . SVG Version: 6.00 Build 0)  -->
<svg version="1.1" id="Layer_1" xmlns="http://www.w3.org/2000/svg" xmlns:xlink="http://www.w3.org/1999/xlink" x="0px" y="0px"
	 viewBox="0 0 530.3 302.9" style="enable-background:new 0 0 530.3 302.9;" xml:space="preserve">
<style type="text/css">
	.st0{fill:#EC1C24;}
	.st1{fill-rule:evenodd;clip-rule:evenodd;}
	.st2{font-family:'FiraSans-Bold';}
	.st3{font-size:62px;}
</style>
<g id="Layer_1-2">
	<path class="st0" d="M216.1,62.5h-13.4l-12.8-34.4c0.4,3.4,0.8,6.4,1,8.9c0.2,2.6,0.4,5.6,0.4,9.2v16.3h-9.4V18.1H195l13.1,34.4
		c-0.9-5.5-1.4-11-1.4-16.5V18.1h9.4L216.1,62.5z"/>
	<path class="st0" d="M254.1,62.5l-2.3-9.5h-12.9l-2.2,9.5h-10.9l13.4-44.3h12.7l13.4,44.3H254.1z M240.6,45.3h9.4l-4.7-19.6
		L240.6,45.3z"/>
	<path class="st0" d="M297.8,18.4c2.5,1,4.8,2.4,6.7,4.3l-4.9,5.7c-2.7-2.4-6.2-3.7-9.7-3.7c-1.5-0.1-3.1,0.3-4.4,1.1
		c-1.1,0.7-1.7,1.9-1.6,3.2c0,0.9,0.2,1.7,0.7,2.4c0.7,0.8,1.5,1.4,2.5,1.8c1.8,0.8,3.5,1.4,5.4,2c4.5,1.4,7.9,3.2,10,5.3
		c2.1,2.1,3.2,5.1,3.2,9c0.1,2.6-0.7,5.2-2.1,7.3c-1.5,2.2-3.6,3.9-6.1,4.9c-3,1.2-6.2,1.8-9.4,1.8c-3.3,0.1-6.6-0.5-9.6-1.7
		c-2.7-1.1-5.1-2.6-7.2-4.6l5.3-5.8c1.6,1.4,3.4,2.5,5.3,3.3c1.9,0.7,3.9,1.1,5.9,1.1c1.8,0.1,3.7-0.4,5.2-1.4c1.3-0.9,2-2.4,1.9-4
		c0-1-0.2-1.9-0.7-2.8c-0.6-0.9-1.5-1.6-2.4-2c-1.6-0.8-3.3-1.4-5-1.9c-4.9-1.5-8.4-3.3-10.5-5.5c-3.7-4.2-4.1-10.3-1.1-15
		c1.4-2,3.4-3.6,5.7-4.5c2.6-1.1,5.4-1.6,8.3-1.6C292.1,17,295.1,17.4,297.8,18.4z"/>
	<path class="st0" d="M340.9,62.5l-2.3-9.5h-12.9l-2.2,9.5h-10.9L326,18.1h12.7l13.4,44.3H340.9z M327.5,45.3h9.4l-4.7-19.6
		L327.5,45.3z"/>
	<path class="st1" d="M30.7,183.9v-5.2c-0.1-1.3-0.3-2.5-0.7-3.7c-0.3-1-0.8-1.9-1.4-2.8c-0.6-1-1.3-1.9-2.1-2.8
		c-1.7-2-3.4-4-5.1-5.7s-3.5-3.5-5.3-5.3s-3.6-3.6-5.5-5.6s-3.8-4.3-5.9-6.7c-2.1-2.2-3.5-5.1-4-8.1c-0.4-3.4-0.6-6.7-0.6-10.1
		v-21.2c0-15.5,7.3-23.2,21.8-23.2c7.9,0,13.4,1.9,16.6,5.7c3.6,5.1,5.3,11.3,4.8,17.5v25.6H31.2v-23.9c0.1-3-0.5-5.9-1.8-8.5
		c-1.6-2.3-4.3-3.6-7.1-3.2c-6,0-9,3.4-9,10.1v20.8c-0.1,2.2,0.1,4.3,0.6,6.4c0.5,1.6,1.4,3,2.5,4.3c3.1,4.1,6.5,7.9,10.2,11.6
		c3.9,3.6,7.5,7.4,10.9,11.4c2.4,2.6,4.1,5.8,5,9.2c0.9,4.3,1.3,8.7,1.2,13.1v20.1c0.4,6.1-1.4,12.1-5,17.1
		c-4.4,4.4-10.6,6.6-16.8,5.9c-6.1,0.6-12.2-1.6-16.6-5.9c-3.8-4.9-5.6-10.9-5.3-17.1v-29.9h12.5v28c-0.1,3.1,0.6,6.1,2,8.8
		c1.5,2.4,4.2,3.7,7,3.4c2.6,0.3,5.3-0.7,7.1-2.6c1.6-2.2,2.4-5,2.1-7.7L30.7,183.9z M91.9,110.7c0.3-3.3-0.6-6.6-2.6-9.3
		c-2.3-2.2-5.4-3.3-8.5-3h-8.9V146h9c3.1,0.3,6.2-0.8,8.5-2.9c2.1-2.7,3-6,2.7-9.4v-23.3L91.9,110.7z M58.8,225.2V85h22
		c6.6-0.5,13.2,1.7,18.2,6.2c4.4,5.4,6.5,12.3,5.9,19.3v23c0,8.9-1.9,15.3-5.8,19.2c-5,4.4-11.6,6.5-18.2,6h-9.1v66.6L58.8,225.2z
		 M143,189.8c-1.5-12-2.9-24-4.3-35.9c-1.3-11.9-2.8-23.9-4.3-36c-1.5,12.1-3,24.1-4.5,36s-3.1,23.8-4.7,35.9H143z M147.6,225.2
		l-3.1-23.5h-21l-3.1,23.5h-12.8L126.9,85h15.3l18.2,140.2L147.6,225.2z M202,173.8h11.8v29c0.5,6.4-1.2,12.8-4.9,18.1
		c-4.1,4.2-9.9,6.3-15.8,5.7c-14.9,0-22.4-7.9-22.4-23.7v-95.2c0-16.1,7.5-24.2,22.4-24.2c13.7,0,20.5,8,20.5,23.9v24.9H202v-24.7
		c0.2-2.9-0.5-5.8-1.9-8.3c-1.7-2-4.3-2.9-6.9-2.7c-6.2,0-9.3,3.7-9.3,10.9V203c0,7.4,3.1,11,9.3,11c2.6,0.3,5.1-0.7,6.8-2.7
		c1.5-2.5,2.2-5.4,2-8.3L202,173.8z M228.9,225.2V85H266v13.1h-24.2v49.1h17.1v13.1h-17.1v52.1h25.1v12.8h-38.1L228.9,225.2z
		 M339.4,189.8c-1.5-12-2.9-24-4.3-35.9c-1.3-11.9-2.8-23.9-4.3-36c-1.5,12.1-3,24.1-4.5,36c-1.5,11.9-3.1,23.8-4.7,35.9H339.4z
		 M344,225.2l-3.1-23.5h-21l-3.1,23.5H304L323.3,85h15.3l18.3,140.2L344,225.2z M403,110.4c0.3-3.3-0.6-6.6-2.6-9.3
		c-2.3-2.2-5.4-3.3-8.5-3H383V146h9c3.1,0.3,6.2-0.8,8.5-2.9c2.1-2.7,3-6,2.7-9.4v-23.3L403,110.4z M369.8,225.2V85h21.9
		c3.3-0.3,6.6,0.1,9.8,1.2c3.1,1.1,6,2.8,8.5,5c4.4,5.4,6.5,12.3,5.9,19.3v23c0,8.9-2,15.3-5.9,19.2c-5,4.4-11.6,6.5-18.2,6h-9.1
		v66.6L369.8,225.2z M462.1,110.4c0.3-3.3-0.6-6.6-2.6-9.3c-2.3-2.2-5.4-3.3-8.5-3h-8.9V146h9c3.1,0.3,6.2-0.8,8.5-2.9
		c2.1-2.7,3-6,2.7-9.4v-23.3L462.1,110.4z M429,225.2V85h21.9c6.7-0.6,13.3,1.7,18.2,6.2c4.4,5.4,6.6,12.3,6.1,19.3v23
		c0,8.9-2,15.3-5.9,19.2c-5,4.4-11.6,6.5-18.2,6h-9.1v66.6L429,225.2z M517.2,183.9v-5.2c-0.1-1.3-0.3-2.5-0.7-3.7
		c-0.3-1-0.8-1.9-1.4-2.8c-0.6-1-1.3-1.9-2-2.8c-1.7-2-3.4-4-5.1-5.7s-3.5-3.5-5.3-5.3s-3.7-3.7-5.5-5.6s-3.8-4.3-5.9-6.7
		c-2.1-2.3-3.5-5.1-4-8.1c-0.4-3.4-0.6-6.7-0.6-10.1v-21.2c0-15.5,7.3-23.2,21.8-23.2c7.9,0,13.4,1.9,16.6,5.7
		c3.6,5.1,5.3,11.3,4.8,17.5v25.6h-12.1v-23.9c0.1-3-0.5-5.9-1.8-8.5c-1.6-2.3-4.3-3.6-7.1-3.2c-6,0-9,3.4-9,10.1v20.8
		c-0.1,2.2,0.1,4.3,0.6,6.4c0.6,1.6,1.4,3,2.5,4.3c3.2,4.1,6.6,8,10.3,11.6c3.9,3.6,7.5,7.4,10.8,11.4c2.4,2.6,4.1,5.8,5,9.2
		c0.9,4.3,1.3,8.7,1.2,13.1v20.1c0.4,6.1-1.4,12.2-5,17.1c-9.7,7.9-23.7,7.9-33.4,0c-3.8-4.8-5.7-10.9-5.3-17.1v-29.9H499v28
		c-0.1,3.1,0.6,6.1,2,8.8c1.5,2.4,4.2,3.7,7,3.4c2.6,0.3,5.3-0.7,7.1-2.6c1.6-2.3,2.3-5,2.1-7.7L517.2,183.9z"/>
	<text transform="matrix(1 0 0 1 98.89 289.08)" class="st0 st2 st3">P  </text>
	<text transform="matrix(1 0 0 1 139.7 288.55)" class="st0 st2 st3">A</text>
	<text transform="matrix(1 0 0 1 183.69 287.7)" class="st0 st2 st3">S</text>
	<text transform="matrix(1 0 0 1 226.54 288.78)" class="st0 st2 st3">A</text>
	<text transform="matrix(1 0 0 1 270.13 288.55)" class="st0 st2 st3">D</text>
	<text transform="matrix(1 0 0 1 315.62 288.55)" class="st0 st2 st3">E</text>
	<text transform="matrix(1 0 0 1 355.98 288.73)" class="st0 st2 st3">N</text>
	<text transform="matrix(1 0 0 1 401.4299 288.73)" class="st0 st2 st3">A</text>
</g>
</svg>
