<svg id="Layer_1" data-name="Layer 1" xmlns="http://www.w3.org/2000/svg" viewBox="0 0 530.28 302.85"><g id="Layer_1-2" data-name="Layer 1-2"><path d="M216.08,62.46H202.7L189.9,28.09q.65,5.06,1,8.93t.36,9.18V62.46h-9.35V18.11H195l13.12,34.43A106.23,106.23,0,0,1,206.68,36V18.11h9.41Z" style="fill:#ec1c24"/><path d="M254.09,62.46l-2.3-9.54H238.86l-2.24,9.54H225.74l13.38-44.35h12.74l13.37,44.35ZM240.65,45.31H250l-4.67-19.57Z" style="fill:#ec1c24"/><path d="M297.84,18.43a19.81,19.81,0,0,1,6.7,4.31l-4.87,5.7a15.08,15.08,0,0,0-9.74-3.7,7.38,7.38,0,0,0-4.39,1.08,3.71,3.71,0,0,0-1.6,3.23,4,4,0,0,0,.71,2.4,6.62,6.62,0,0,0,2.49,1.76,49.68,49.68,0,0,0,5.38,2q6.78,2.16,10,5.35t3.2,9a12.82,12.82,0,0,1-2.11,7.33,13.9,13.9,0,0,1-6.08,4.93,23.32,23.32,0,0,1-9.41,1.76,25.38,25.38,0,0,1-9.63-1.73,23.25,23.25,0,0,1-7.2-4.61l5.31-5.82a19.56,19.56,0,0,0,5.28,3.26,15.81,15.81,0,0,0,5.92,1.09A8.34,8.34,0,0,0,293,54.33a4.72,4.72,0,0,0,1.89-4,5,5,0,0,0-.7-2.79,6.06,6.06,0,0,0-2.43-2,31.84,31.84,0,0,0-5-1.92q-7.35-2.25-10.46-5.51a12.39,12.39,0,0,1-1.06-15,13.06,13.06,0,0,1,5.7-4.48,20.55,20.55,0,0,1,8.26-1.57A24,24,0,0,1,297.84,18.43Z" style="fill:#ec1c24"/><path d="M340.94,62.46l-2.3-9.54H325.71l-2.24,9.54H312.59L326,18.11H338.7l13.38,44.35Zm-13.4-17.15h9.35l-4.72-19.57Z" style="fill:#ec1c24"/><path d="M30.66,183.91v-5.17a13.46,13.46,0,0,0-.69-3.68,10.15,10.15,0,0,0-1.36-2.81,27.1,27.1,0,0,0-2.07-2.81c-1.71-2-3.42-4-5.12-5.72s-3.51-3.54-5.3-5.29-3.63-3.63-5.51-5.64-3.84-4.27-5.89-6.7a15.54,15.54,0,0,1-4-8.11,68.57,68.57,0,0,1-.6-10.12V106.68q0-23.18,21.82-23.18c7.85,0,13.36,1.92,16.56,5.72a26.55,26.55,0,0,1,4.78,17.46V132.3H31.21V108.39a17.51,17.51,0,0,0-1.79-8.54,7.4,7.4,0,0,0-7.09-3.25c-6,0-9,3.38-9,10.08v20.79a24.18,24.18,0,0,0,.6,6.45,12.89,12.89,0,0,0,2.48,4.27,107.86,107.86,0,0,0,10.23,11.55,120,120,0,0,1,10.9,11.42,22.68,22.68,0,0,1,5,9.18,55.3,55.3,0,0,1,1.2,13.15V203.6a25.92,25.92,0,0,1-5,17.07,21,21,0,0,1-16.82,5.94,21,21,0,0,1-16.61-5.94A25.29,25.29,0,0,1,.05,203.6V173.74H12.52v28a17.52,17.52,0,0,0,2,8.83,7.49,7.49,0,0,0,7,3.42,8.57,8.57,0,0,0,7.08-2.65,11.79,11.79,0,0,0,2.14-7.73Zm61.26-73.26a13.75,13.75,0,0,0-2.56-9.31,11,11,0,0,0-8.54-3H71.94V146h9a11,11,0,0,0,8.54-2.9,13.34,13.34,0,0,0,2.74-9.39V110.44ZM58.83,225.24V85h22A24.23,24.23,0,0,1,99,91.18a26.93,26.93,0,0,1,5.89,19.26v23c0,8.88-1.92,15.28-5.81,19.25a24.49,24.49,0,0,1-18.18,6h-9.1v66.6ZM143,189.81q-2.25-18.06-4.27-35.87t-4.27-36q-2.22,18.21-4.53,36t-4.7,35.87Zm4.61,35.43-3.06-23.5h-21l-3.1,23.5H107.63L126.93,85h15.29l18.23,140.21ZM202,173.8h11.78v29a28.13,28.13,0,0,1-4.86,18.14,19.31,19.31,0,0,1-15.76,5.68q-22.35,0-22.37-23.7V107.74q0-24.21,22.37-24.21,20.49,0,20.49,23.86v24.85H202V107.53a14.35,14.35,0,0,0-1.92-8.28,7.94,7.94,0,0,0-6.88-2.65c-6.19,0-9.3,3.68-9.3,10.93V203c0,7.38,3.11,11,9.3,11a7.89,7.89,0,0,0,6.83-2.73,14.38,14.38,0,0,0,2-8.32Zm26.94,51.44V85H266V98.14H241.78v49.1h17.08v13.11H241.78v52.13h25.1v12.81H228.8Zm110.45-35.43q-2.25-18.06-4.27-35.87t-4.27-36q-2.25,18.21-4.52,36t-4.7,35.87ZM344,225.24l-3.07-23.5h-21l-3.08,23.5H304L323.33,85h15.28l18.27,140.21Zm59-114.8a13.94,13.94,0,0,0-2.57-9.31,11,11,0,0,0-8.53-3H383V146h9.05a11.08,11.08,0,0,0,8.54-2.9,13.44,13.44,0,0,0,2.73-9.39v-23.3Zm-33.21,114.8V85h21.94a24.11,24.11,0,0,1,9.76,1.19,23.76,23.76,0,0,1,8.47,5,27,27,0,0,1,5.94,19.26v23c0,8.88-2,15.28-5.85,19.25a24.57,24.57,0,0,1-18.19,6h-9.09v66.6Zm92.35-114.8a13.94,13.94,0,0,0-2.57-9.31,11,11,0,0,0-8.53-3h-8.88V146h9a11,11,0,0,0,8.53-2.9,13.45,13.45,0,0,0,2.74-9.39v-23.3ZM429,225.24V85h21.94a24.23,24.23,0,0,1,18.23,6.15,26.94,26.94,0,0,1,6.06,19.26v23c0,8.88-2,15.28-5.85,19.25a24.49,24.49,0,0,1-18.18,6h-9.1v66.6Zm88.24-41.33v-5.17a14.76,14.76,0,0,0-.68-3.68,11.59,11.59,0,0,0-1.36-2.81,27.59,27.59,0,0,0-2-2.78c-1.71-2-3.42-4-5.13-5.72s-3.5-3.54-5.29-5.29-3.72-3.72-5.55-5.64-3.84-4.27-5.89-6.7a15.76,15.76,0,0,1-4-8.11,68.57,68.57,0,0,1-.6-10.12V106.68q0-23.18,21.81-23.18c7.86,0,13.37,1.92,16.57,5.72a26.55,26.55,0,0,1,4.78,17.46V132.3H517.76V108.39a17.51,17.51,0,0,0-1.8-8.54,7.39,7.39,0,0,0-7.08-3.25c-6,0-9.05,3.38-9.05,10.08v20.79a25.47,25.47,0,0,0,.59,6.45,14.29,14.29,0,0,0,2.48,4.27,103.78,103.78,0,0,0,10.33,11.55,120.44,120.44,0,0,1,10.85,11.4,22.79,22.79,0,0,1,5,9.18,55.29,55.29,0,0,1,1.19,13.15v20.11a25.86,25.86,0,0,1-5,17.07,26.51,26.51,0,0,1-33.43,0,25.28,25.28,0,0,1-5.3-17.05V173.74H499v28a17.73,17.73,0,0,0,2,8.83A7.53,7.53,0,0,0,508,214a8.59,8.59,0,0,0,7.09-2.65,12,12,0,0,0,2.13-7.73Z" style="fill-rule:evenodd"/><text transform="translate(98.89 289.08)" style="font-size:62px;fill:#ec1c24;font-family:FiraSans-Bold, Fira Sans;font-weight:700"><tspan xml:space="preserve">P  </tspan></text><text transform="translate(139.7 288.55)" style="font-size:62px;fill:#ec1c24;font-family:FiraSans-Bold, Fira Sans;font-weight:700">A</text><text transform="translate(183.69 287.7)" style="font-size:62px;fill:#ec1c24;font-family:FiraSans-Bold, Fira Sans;font-weight:700">S</text><text transform="translate(226.54 288.78)" style="font-size:62px;fill:#ec1c24;font-family:FiraSans-Bold, Fira Sans;font-weight:700">A</text><text transform="translate(270.13 288.55)" style="font-size:62px;fill:#ec1c24;font-family:FiraSans-Bold, Fira Sans;font-weight:700">D</text><text transform="translate(315.62 288.55)" style="font-size:62px;fill:#ec1c24;font-family:FiraSans-Bold, Fira Sans;font-weight:700">E</text><text transform="translate(355.98 288.73)" style="font-size:62px;fill:#ec1c24;font-family:FiraSans-Bold, Fira Sans;font-weight:700">N</text><text transform="translate(401.43 288.73)" style="font-size:62px;fill:#ec1c24;font-family:FiraSans-Bold, Fira Sans;font-weight:700">A</text></g></svg>