<svg id="Layer_1" data-name="Layer 1" xmlns="http://www.w3.org/2000/svg" viewBox="0 0 895.74 358.11"><defs><style>.cls-1,.cls-4{fill:#ec1c24;}.cls-2{fill-rule:evenodd;}.cls-3,.cls-4{isolation:isolate;}.cls-4{font-size:62px;font-family:FiraSans-Bold, Fira Sans;font-weight:700;}</style></defs><g id="Layer_2" data-name="Layer 2"><g id="Layer_1-2" data-name="Layer 1-2"><path class="cls-1" d="M581.54,117.72H568.16l-12.8-34.37q.64,5.06,1,8.93t.36,9.18v16.26h-9.35V73.37h13.06l13.12,34.43a103.84,103.84,0,0,1-1.41-16.51V73.37h9.41Z"/><path class="cls-1" d="M619.55,117.72l-2.3-9.54H604.32l-2.24,9.54H591.2l13.38-44.35h12.74l13.37,44.35Zm-13.44-17.15h9.35L610.79,81Z"/><path class="cls-1" d="M663.3,73.69A20,20,0,0,1,670,78l-4.87,5.7a15.12,15.12,0,0,0-9.74-3.7A7.45,7.45,0,0,0,651,81.08a3.73,3.73,0,0,0-1.6,3.23,3.81,3.81,0,0,0,.71,2.4,6.44,6.44,0,0,0,2.49,1.76,48.91,48.91,0,0,0,5.38,2q6.78,2.18,10,5.35t3.2,9a12.87,12.87,0,0,1-2.11,7.33,13.9,13.9,0,0,1-6.08,4.93,23,23,0,0,1-9.41,1.76,25.19,25.19,0,0,1-9.63-1.73,23,23,0,0,1-7.2-4.61l5.31-5.82a18.93,18.93,0,0,0,5.28,3.26,15.74,15.74,0,0,0,5.92,1.09,8.27,8.27,0,0,0,5.15-1.44,4.75,4.75,0,0,0,1.89-4,5.13,5.13,0,0,0-.7-2.79,6.06,6.06,0,0,0-2.43-2,31.84,31.84,0,0,0-5-1.92q-7.35-2.23-10.46-5.51a12.38,12.38,0,0,1-1.06-15,13.13,13.13,0,0,1,5.7-4.48,20.55,20.55,0,0,1,8.26-1.57A24.23,24.23,0,0,1,663.3,73.69Z"/><path class="cls-1" d="M706.4,117.72l-2.3-9.54H691.17l-2.24,9.54H678.05l13.38-44.35h12.73l13.38,44.35ZM693,100.57h9.35L697.63,81Z"/><path class="cls-2" d="M396.12,239.17V234a13.6,13.6,0,0,0-.69-3.68,10.44,10.44,0,0,0-1.36-2.81A33.3,33.3,0,0,0,392,224.7c-1.71-2-3.42-4-5.12-5.72s-3.51-3.54-5.3-5.29-3.63-3.63-5.51-5.64-3.84-4.27-5.89-6.7a15.54,15.54,0,0,1-4-8.11,68.49,68.49,0,0,1-.6-10.12V161.94q0-23.17,21.82-23.18c7.85,0,13.36,1.92,16.56,5.72a26.55,26.55,0,0,1,4.78,17.46v25.62H396.67V163.65a17.64,17.64,0,0,0-1.79-8.54,7.41,7.41,0,0,0-7.09-3.25c-6,0-9,3.38-9,10.08v20.79a23.7,23.7,0,0,0,.6,6.45,12.72,12.72,0,0,0,2.48,4.27A103.89,103.89,0,0,0,392.1,205,121.19,121.19,0,0,1,403,216.42a22.79,22.79,0,0,1,5,9.18,55.83,55.83,0,0,1,1.2,13.15v20.11a25.9,25.9,0,0,1-5,17.07,21,21,0,0,1-16.82,5.94,21,21,0,0,1-16.61-5.94,25.24,25.24,0,0,1-5.21-17.07V229H378v28a17.27,17.27,0,0,0,2,8.83,7.49,7.49,0,0,0,7,3.42,8.55,8.55,0,0,0,7.08-2.65,11.83,11.83,0,0,0,2.14-7.73Zm61.26-73.26a13.88,13.88,0,0,0-2.56-9.31,11,11,0,0,0-8.54-3H437.4v47.7h9.05a11,11,0,0,0,8.54-2.9,13.34,13.34,0,0,0,2.74-9.39V165.7ZM424.29,280.5V140.29h21.95a24.29,24.29,0,0,1,18.23,6.15,26.94,26.94,0,0,1,5.89,19.26v23c0,8.88-1.92,15.28-5.81,19.25a24.52,24.52,0,0,1-18.18,6h-9.1v66.6Zm84.16-35.43q-2.26-18.06-4.27-35.87t-4.27-36q-2.22,18.23-4.53,36t-4.7,35.87Zm4.61,35.43L510,257H489l-3.1,23.5H473.09l19.3-140.21h15.29L525.91,280.5Zm54.39-51.44h11.78v29a28.17,28.17,0,0,1-4.86,18.14,19.29,19.29,0,0,1-15.76,5.68q-22.36,0-22.37-23.7V163q0-24.21,22.37-24.21,20.49,0,20.49,23.86V187.5H567.45V162.79a14.36,14.36,0,0,0-1.92-8.28,7.94,7.94,0,0,0-6.88-2.65c-6.19,0-9.3,3.68-9.3,10.93v95.43c0,7.38,3.11,11,9.3,11a7.87,7.87,0,0,0,6.83-2.73,14.46,14.46,0,0,0,2-8.32Zm26.94,51.44V140.29h37.1V153.4H607.24v49.1h17.08v13.11H607.24v52.13h25.1v12.81H594.26Zm110.45-35.43q-2.26-18.06-4.27-35.87t-4.27-36q-2.26,18.23-4.52,36t-4.7,35.87Zm4.61,35.43L706.38,257h-21l-3.08,23.5H669.49l19.3-140.21h15.28L722.34,280.5Zm59-114.8a14,14,0,0,0-2.57-9.31,11,11,0,0,0-8.53-3h-8.88v47.9h9a11,11,0,0,0,8.54-2.9,13.49,13.49,0,0,0,2.73-9.39V165.7ZM735.24,280.5V140.29h21.94a24.31,24.31,0,0,1,9.76,1.19,24,24,0,0,1,8.47,5,27,27,0,0,1,5.94,19.26v23c0,8.88-2,15.28-5.85,19.25a24.53,24.53,0,0,1-18.19,6h-9.09v66.6Zm92.35-114.8a14,14,0,0,0-2.57-9.31,11,11,0,0,0-8.53-3h-8.88v47.9h9a11,11,0,0,0,8.53-2.9,13.5,13.5,0,0,0,2.74-9.39V165.7ZM794.46,280.5V140.29H816.4a24.29,24.29,0,0,1,18.23,6.15,27,27,0,0,1,6.06,19.26v23c0,8.88-2,15.28-5.85,19.25a24.52,24.52,0,0,1-18.18,6h-9.1v66.6Zm88.24-41.33V234a14.84,14.84,0,0,0-.68-3.68,12.16,12.16,0,0,0-1.36-2.81,32.05,32.05,0,0,0-2-2.78c-1.71-2-3.42-4-5.13-5.72s-3.5-3.54-5.29-5.29-3.72-3.72-5.55-5.64-3.84-4.27-5.89-6.7a15.69,15.69,0,0,1-4-8.11,68.49,68.49,0,0,1-.6-10.12V161.94q0-23.17,21.81-23.18c7.86,0,13.37,1.92,16.57,5.72a26.61,26.61,0,0,1,4.78,17.46v25.62H883.22V163.65a17.65,17.65,0,0,0-1.8-8.54,7.44,7.44,0,0,0-7.08-3.25c-6,0-9.05,3.38-9.05,10.08v20.79a25.42,25.42,0,0,0,.59,6.45,14.17,14.17,0,0,0,2.48,4.27A102,102,0,0,0,878.69,205a121.73,121.73,0,0,1,10.85,11.4,23,23,0,0,1,5,9.18,55.87,55.87,0,0,1,1.19,13.15v20.11a25.9,25.9,0,0,1-5,17.07,26.49,26.49,0,0,1-33.43,0,25.21,25.21,0,0,1-5.3-17.05V229h12.42v28a17.7,17.7,0,0,0,2,8.83,7.53,7.53,0,0,0,7.08,3.42,8.53,8.53,0,0,0,7.09-2.65,12.09,12.09,0,0,0,2.13-7.73Z"/><path class="cls-2" d="M258.89,123.3l-.46.64a30.8,30.8,0,0,1-4.27,4.57,30.15,30.15,0,0,1-50.34-22.37,29.14,29.14,0,0,1,1.54-9.35,30.37,30.37,0,0,1,6.91-11.31l.81-.86a30.14,30.14,0,0,1,45.81,38.77ZM276,213.05a131.56,131.56,0,1,1-77.7-119.8,37.47,37.47,0,0,0-2.26,12.8,38.09,38.09,0,0,0,38,38A37.54,37.54,0,0,0,253,139a130.73,130.73,0,0,1,23,74.16ZM339.16,89.32a3.27,3.27,0,0,0-.78-1.13,3.49,3.49,0,0,0-1.15-.74,3.29,3.29,0,0,0-1.35-.23,3.4,3.4,0,0,0-1.33.3l-64,29.55a43.54,43.54,0,0,0,1.41-6.79h.38l33-26.34a3.5,3.5,0,0,0,.43-4.91,3.41,3.41,0,0,0-4.61-.68L271.87,101.7a37.78,37.78,0,0,0-8.79-20l29.63-28.86A3.42,3.42,0,0,0,290.46,47a3.54,3.54,0,0,0-2.45.73L258.13,76.85A37.84,37.84,0,0,0,238.7,68.4l23.14-28.91a3.5,3.5,0,0,0-5.29-4.56l-27,33.47a37.66,37.66,0,0,0-8.24,1.92L251.51,5a3.63,3.63,0,0,0,.34-1.33,3.62,3.62,0,0,0-.9-2.55A3.59,3.59,0,0,0,248.51,0a3.71,3.71,0,0,0-1.36.2,3.56,3.56,0,0,0-2,1.81L211,76a40.51,40.51,0,0,0-4.7,4.27c-.55.56-1.06,1.07-1.49,1.58a144.7,144.7,0,1,0,58.45,48.68l1.07-1.29c.55-.72,1.06-1.49,1.58-2.26l71.5-33a3.31,3.31,0,0,0,1.11-.77,3.45,3.45,0,0,0,.74-1.14,3.81,3.81,0,0,0,.24-1.33,3.31,3.31,0,0,0-.3-1.32"/></g><g class="cls-3"><text class="cls-4" transform="translate(464.35 344.35)"><tspan xml:space="preserve">P  </tspan></text></g><text class="cls-4" transform="translate(505.16 343.81)">A</text><text class="cls-4" transform="translate(549.14 342.96)">S</text><text class="cls-4" transform="translate(592 344.04)">A</text><text class="cls-4" transform="translate(635.59 343.81)">D</text><text class="cls-4" transform="translate(681.08 343.81)">E</text><text class="cls-4" transform="translate(721.44 343.99)">N</text><text class="cls-4" transform="translate(766.89 344)">A</text></g></svg>